<mxfile host="Electron" modified="2023-11-16T04:16:28.721Z" agent="Mozilla/5.0 (Windows NT 10.0; Win64; x64) AppleWebKit/537.36 (KHTML, like Gecko) draw.io/22.0.3 Chrome/114.0.5735.289 Electron/25.8.4 Safari/537.36" etag="cwrCItXjec5dEzREHlSP" version="22.0.3" type="device">
  <diagram name="Page-1" id="EU95FbLC4-0vJ19-Mq4g">
    <mxGraphModel dx="2793" dy="951" grid="0" gridSize="10" guides="1" tooltips="1" connect="1" arrows="1" fold="1" page="0" pageScale="1" pageWidth="850" pageHeight="1100" math="0" shadow="0">
      <root>
        <mxCell id="0" />
        <mxCell id="1" parent="0" />
        <mxCell id="-qn0VNu3mBSavHZw8yQI-42" value="SQL Databases" style="swimlane;" vertex="1" parent="1">
          <mxGeometry x="-2146" y="-162" width="1510" height="800" as="geometry" />
        </mxCell>
        <mxCell id="NPpUsrkIHnFNNXtcyEgX-66" value="VHS_UM" style="swimlane;whiteSpace=wrap;html=1;startSize=23;" parent="-qn0VNu3mBSavHZw8yQI-42" vertex="1">
          <mxGeometry x="778" y="93" width="688" height="529" as="geometry">
            <mxRectangle x="262" y="-19" width="137" height="26" as="alternateBounds" />
          </mxGeometry>
        </mxCell>
        <mxCell id="NPpUsrkIHnFNNXtcyEgX-4" value="Users" style="swimlane;fontStyle=0;childLayout=stackLayout;horizontal=1;startSize=26;fillColor=none;horizontalStack=0;resizeParent=1;resizeParentMax=0;resizeLast=0;collapsible=1;marginBottom=0;whiteSpace=wrap;html=1;" parent="NPpUsrkIHnFNNXtcyEgX-66" vertex="1">
          <mxGeometry x="20" y="45" width="140" height="234" as="geometry">
            <mxRectangle x="330" y="230" width="100" height="30" as="alternateBounds" />
          </mxGeometry>
        </mxCell>
        <mxCell id="NPpUsrkIHnFNNXtcyEgX-24" value="id" style="text;strokeColor=none;fillColor=none;align=left;verticalAlign=top;spacingLeft=4;spacingRight=4;overflow=hidden;rotatable=0;points=[[0,0.5],[1,0.5]];portConstraint=eastwest;whiteSpace=wrap;html=1;" parent="NPpUsrkIHnFNNXtcyEgX-4" vertex="1">
          <mxGeometry y="26" width="140" height="26" as="geometry" />
        </mxCell>
        <mxCell id="NPpUsrkIHnFNNXtcyEgX-25" value="username" style="text;strokeColor=none;fillColor=none;align=left;verticalAlign=top;spacingLeft=4;spacingRight=4;overflow=hidden;rotatable=0;points=[[0,0.5],[1,0.5]];portConstraint=eastwest;whiteSpace=wrap;html=1;" parent="NPpUsrkIHnFNNXtcyEgX-4" vertex="1">
          <mxGeometry y="52" width="140" height="26" as="geometry" />
        </mxCell>
        <mxCell id="NPpUsrkIHnFNNXtcyEgX-26" value="email" style="text;strokeColor=none;fillColor=none;align=left;verticalAlign=top;spacingLeft=4;spacingRight=4;overflow=hidden;rotatable=0;points=[[0,0.5],[1,0.5]];portConstraint=eastwest;whiteSpace=wrap;html=1;" parent="NPpUsrkIHnFNNXtcyEgX-4" vertex="1">
          <mxGeometry y="78" width="140" height="26" as="geometry" />
        </mxCell>
        <mxCell id="NPpUsrkIHnFNNXtcyEgX-27" value="first_name" style="text;strokeColor=none;fillColor=none;align=left;verticalAlign=top;spacingLeft=4;spacingRight=4;overflow=hidden;rotatable=0;points=[[0,0.5],[1,0.5]];portConstraint=eastwest;whiteSpace=wrap;html=1;" parent="NPpUsrkIHnFNNXtcyEgX-4" vertex="1">
          <mxGeometry y="104" width="140" height="26" as="geometry" />
        </mxCell>
        <mxCell id="NPpUsrkIHnFNNXtcyEgX-6" value="last_name" style="text;strokeColor=none;fillColor=none;align=left;verticalAlign=top;spacingLeft=4;spacingRight=4;overflow=hidden;rotatable=0;points=[[0,0.5],[1,0.5]];portConstraint=eastwest;whiteSpace=wrap;html=1;" parent="NPpUsrkIHnFNNXtcyEgX-4" vertex="1">
          <mxGeometry y="130" width="140" height="26" as="geometry" />
        </mxCell>
        <mxCell id="NPpUsrkIHnFNNXtcyEgX-29" value="gender" style="text;strokeColor=none;fillColor=none;align=left;verticalAlign=top;spacingLeft=4;spacingRight=4;overflow=hidden;rotatable=0;points=[[0,0.5],[1,0.5]];portConstraint=eastwest;whiteSpace=wrap;html=1;" parent="NPpUsrkIHnFNNXtcyEgX-4" vertex="1">
          <mxGeometry y="156" width="140" height="26" as="geometry" />
        </mxCell>
        <mxCell id="NPpUsrkIHnFNNXtcyEgX-30" value="created_at" style="text;strokeColor=none;fillColor=none;align=left;verticalAlign=top;spacingLeft=4;spacingRight=4;overflow=hidden;rotatable=0;points=[[0,0.5],[1,0.5]];portConstraint=eastwest;whiteSpace=wrap;html=1;" parent="NPpUsrkIHnFNNXtcyEgX-4" vertex="1">
          <mxGeometry y="182" width="140" height="26" as="geometry" />
        </mxCell>
        <mxCell id="NPpUsrkIHnFNNXtcyEgX-28" value="updated_at" style="text;strokeColor=none;fillColor=none;align=left;verticalAlign=top;spacingLeft=4;spacingRight=4;overflow=hidden;rotatable=0;points=[[0,0.5],[1,0.5]];portConstraint=eastwest;whiteSpace=wrap;html=1;" parent="NPpUsrkIHnFNNXtcyEgX-4" vertex="1">
          <mxGeometry y="208" width="140" height="26" as="geometry" />
        </mxCell>
        <mxCell id="NPpUsrkIHnFNNXtcyEgX-12" value="Groups" style="swimlane;fontStyle=0;childLayout=stackLayout;horizontal=1;startSize=26;fillColor=none;horizontalStack=0;resizeParent=1;resizeParentMax=0;resizeLast=0;collapsible=1;marginBottom=0;whiteSpace=wrap;html=1;" parent="NPpUsrkIHnFNNXtcyEgX-66" vertex="1">
          <mxGeometry x="497" y="45" width="140" height="78" as="geometry" />
        </mxCell>
        <mxCell id="NPpUsrkIHnFNNXtcyEgX-13" value="id" style="text;strokeColor=none;fillColor=none;align=left;verticalAlign=top;spacingLeft=4;spacingRight=4;overflow=hidden;rotatable=0;points=[[0,0.5],[1,0.5]];portConstraint=eastwest;whiteSpace=wrap;html=1;" parent="NPpUsrkIHnFNNXtcyEgX-12" vertex="1">
          <mxGeometry y="26" width="140" height="26" as="geometry" />
        </mxCell>
        <mxCell id="NPpUsrkIHnFNNXtcyEgX-14" value="name" style="text;strokeColor=none;fillColor=none;align=left;verticalAlign=top;spacingLeft=4;spacingRight=4;overflow=hidden;rotatable=0;points=[[0,0.5],[1,0.5]];portConstraint=eastwest;whiteSpace=wrap;html=1;" parent="NPpUsrkIHnFNNXtcyEgX-12" vertex="1">
          <mxGeometry y="52" width="140" height="26" as="geometry" />
        </mxCell>
        <mxCell id="NPpUsrkIHnFNNXtcyEgX-16" value="Features" style="swimlane;fontStyle=0;childLayout=stackLayout;horizontal=1;startSize=26;fillColor=none;horizontalStack=0;resizeParent=1;resizeParentMax=0;resizeLast=0;collapsible=1;marginBottom=0;whiteSpace=wrap;html=1;" parent="NPpUsrkIHnFNNXtcyEgX-66" vertex="1">
          <mxGeometry x="23" y="328" width="140" height="156" as="geometry" />
        </mxCell>
        <mxCell id="NPpUsrkIHnFNNXtcyEgX-17" value="id" style="text;strokeColor=none;fillColor=none;align=left;verticalAlign=top;spacingLeft=4;spacingRight=4;overflow=hidden;rotatable=0;points=[[0,0.5],[1,0.5]];portConstraint=eastwest;whiteSpace=wrap;html=1;" parent="NPpUsrkIHnFNNXtcyEgX-16" vertex="1">
          <mxGeometry y="26" width="140" height="26" as="geometry" />
        </mxCell>
        <mxCell id="NPpUsrkIHnFNNXtcyEgX-18" value="name" style="text;strokeColor=none;fillColor=none;align=left;verticalAlign=top;spacingLeft=4;spacingRight=4;overflow=hidden;rotatable=0;points=[[0,0.5],[1,0.5]];portConstraint=eastwest;whiteSpace=wrap;html=1;" parent="NPpUsrkIHnFNNXtcyEgX-16" vertex="1">
          <mxGeometry y="52" width="140" height="26" as="geometry" />
        </mxCell>
        <mxCell id="NPpUsrkIHnFNNXtcyEgX-19" value="url" style="text;strokeColor=none;fillColor=none;align=left;verticalAlign=top;spacingLeft=4;spacingRight=4;overflow=hidden;rotatable=0;points=[[0,0.5],[1,0.5]];portConstraint=eastwest;whiteSpace=wrap;html=1;" parent="NPpUsrkIHnFNNXtcyEgX-16" vertex="1">
          <mxGeometry y="78" width="140" height="26" as="geometry" />
        </mxCell>
        <mxCell id="NPpUsrkIHnFNNXtcyEgX-31" value="show_in_navigation" style="text;strokeColor=none;fillColor=none;align=left;verticalAlign=top;spacingLeft=4;spacingRight=4;overflow=hidden;rotatable=0;points=[[0,0.5],[1,0.5]];portConstraint=eastwest;whiteSpace=wrap;html=1;" parent="NPpUsrkIHnFNNXtcyEgX-16" vertex="1">
          <mxGeometry y="104" width="140" height="26" as="geometry" />
        </mxCell>
        <mxCell id="NPpUsrkIHnFNNXtcyEgX-32" value="parent_id" style="text;strokeColor=none;fillColor=none;align=left;verticalAlign=top;spacingLeft=4;spacingRight=4;overflow=hidden;rotatable=0;points=[[0,0.5],[1,0.5]];portConstraint=eastwest;whiteSpace=wrap;html=1;" parent="NPpUsrkIHnFNNXtcyEgX-16" vertex="1">
          <mxGeometry y="130" width="140" height="26" as="geometry" />
        </mxCell>
        <mxCell id="NPpUsrkIHnFNNXtcyEgX-20" value="Authorities" style="swimlane;fontStyle=0;childLayout=stackLayout;horizontal=1;startSize=26;fillColor=none;horizontalStack=0;resizeParent=1;resizeParentMax=0;resizeLast=0;collapsible=1;marginBottom=0;whiteSpace=wrap;html=1;" parent="NPpUsrkIHnFNNXtcyEgX-66" vertex="1">
          <mxGeometry x="268" y="328" width="140" height="130" as="geometry" />
        </mxCell>
        <mxCell id="NPpUsrkIHnFNNXtcyEgX-21" value="id" style="text;strokeColor=none;fillColor=none;align=left;verticalAlign=top;spacingLeft=4;spacingRight=4;overflow=hidden;rotatable=0;points=[[0,0.5],[1,0.5]];portConstraint=eastwest;whiteSpace=wrap;html=1;" parent="NPpUsrkIHnFNNXtcyEgX-20" vertex="1">
          <mxGeometry y="26" width="140" height="26" as="geometry" />
        </mxCell>
        <mxCell id="NPpUsrkIHnFNNXtcyEgX-61" value="user_group_id" style="text;strokeColor=none;fillColor=none;align=left;verticalAlign=top;spacingLeft=4;spacingRight=4;overflow=hidden;rotatable=0;points=[[0,0.5],[1,0.5]];portConstraint=eastwest;whiteSpace=wrap;html=1;" parent="NPpUsrkIHnFNNXtcyEgX-20" vertex="1">
          <mxGeometry y="52" width="140" height="26" as="geometry" />
        </mxCell>
        <mxCell id="NPpUsrkIHnFNNXtcyEgX-22" value="feature_id" style="text;strokeColor=none;fillColor=none;align=left;verticalAlign=top;spacingLeft=4;spacingRight=4;overflow=hidden;rotatable=0;points=[[0,0.5],[1,0.5]];portConstraint=eastwest;whiteSpace=wrap;html=1;" parent="NPpUsrkIHnFNNXtcyEgX-20" vertex="1">
          <mxGeometry y="78" width="140" height="26" as="geometry" />
        </mxCell>
        <mxCell id="NPpUsrkIHnFNNXtcyEgX-23" value="desc" style="text;strokeColor=none;fillColor=none;align=left;verticalAlign=top;spacingLeft=4;spacingRight=4;overflow=hidden;rotatable=0;points=[[0,0.5],[1,0.5]];portConstraint=eastwest;whiteSpace=wrap;html=1;" parent="NPpUsrkIHnFNNXtcyEgX-20" vertex="1">
          <mxGeometry y="104" width="140" height="26" as="geometry" />
        </mxCell>
        <mxCell id="NPpUsrkIHnFNNXtcyEgX-56" style="edgeStyle=orthogonalEdgeStyle;rounded=0;orthogonalLoop=1;jettySize=auto;html=1;startArrow=diamondThin;startFill=0;" parent="NPpUsrkIHnFNNXtcyEgX-66" source="NPpUsrkIHnFNNXtcyEgX-45" target="NPpUsrkIHnFNNXtcyEgX-20" edge="1">
          <mxGeometry relative="1" as="geometry" />
        </mxCell>
        <mxCell id="NPpUsrkIHnFNNXtcyEgX-45" value="UserGroup" style="swimlane;fontStyle=0;childLayout=stackLayout;horizontal=1;startSize=26;fillColor=none;horizontalStack=0;resizeParent=1;resizeParentMax=0;resizeLast=0;collapsible=1;marginBottom=0;whiteSpace=wrap;html=1;" parent="NPpUsrkIHnFNNXtcyEgX-66" vertex="1">
          <mxGeometry x="268" y="45" width="140" height="104" as="geometry" />
        </mxCell>
        <mxCell id="NPpUsrkIHnFNNXtcyEgX-46" value="id" style="text;strokeColor=none;fillColor=none;align=left;verticalAlign=top;spacingLeft=4;spacingRight=4;overflow=hidden;rotatable=0;points=[[0,0.5],[1,0.5]];portConstraint=eastwest;whiteSpace=wrap;html=1;" parent="NPpUsrkIHnFNNXtcyEgX-45" vertex="1">
          <mxGeometry y="26" width="140" height="26" as="geometry" />
        </mxCell>
        <mxCell id="NPpUsrkIHnFNNXtcyEgX-47" value="user_id" style="text;strokeColor=none;fillColor=none;align=left;verticalAlign=top;spacingLeft=4;spacingRight=4;overflow=hidden;rotatable=0;points=[[0,0.5],[1,0.5]];portConstraint=eastwest;whiteSpace=wrap;html=1;" parent="NPpUsrkIHnFNNXtcyEgX-45" vertex="1">
          <mxGeometry y="52" width="140" height="26" as="geometry" />
        </mxCell>
        <mxCell id="NPpUsrkIHnFNNXtcyEgX-51" value="group_id" style="text;strokeColor=none;fillColor=none;align=left;verticalAlign=top;spacingLeft=4;spacingRight=4;overflow=hidden;rotatable=0;points=[[0,0.5],[1,0.5]];portConstraint=eastwest;whiteSpace=wrap;html=1;" parent="NPpUsrkIHnFNNXtcyEgX-45" vertex="1">
          <mxGeometry y="78" width="140" height="26" as="geometry" />
        </mxCell>
        <mxCell id="NPpUsrkIHnFNNXtcyEgX-48" style="edgeStyle=orthogonalEdgeStyle;rounded=0;orthogonalLoop=1;jettySize=auto;html=1;exitX=1;exitY=0.5;exitDx=0;exitDy=0;startArrow=diamondThin;startFill=0;" parent="NPpUsrkIHnFNNXtcyEgX-66" source="NPpUsrkIHnFNNXtcyEgX-24" target="NPpUsrkIHnFNNXtcyEgX-46" edge="1">
          <mxGeometry relative="1" as="geometry" />
        </mxCell>
        <mxCell id="NPpUsrkIHnFNNXtcyEgX-50" style="edgeStyle=orthogonalEdgeStyle;rounded=0;orthogonalLoop=1;jettySize=auto;html=1;exitX=0;exitY=0.5;exitDx=0;exitDy=0;entryX=1;entryY=0.5;entryDx=0;entryDy=0;startArrow=diamondThin;startFill=0;" parent="NPpUsrkIHnFNNXtcyEgX-66" source="NPpUsrkIHnFNNXtcyEgX-13" target="NPpUsrkIHnFNNXtcyEgX-46" edge="1">
          <mxGeometry relative="1" as="geometry" />
        </mxCell>
        <mxCell id="NPpUsrkIHnFNNXtcyEgX-54" value="1" style="text;html=1;align=center;verticalAlign=middle;resizable=0;points=[];autosize=1;strokeColor=none;fillColor=none;" parent="NPpUsrkIHnFNNXtcyEgX-66" vertex="1">
          <mxGeometry x="243" y="56" width="25" height="26" as="geometry" />
        </mxCell>
        <mxCell id="NPpUsrkIHnFNNXtcyEgX-57" value="1 ... *" style="text;html=1;align=center;verticalAlign=middle;resizable=0;points=[];autosize=1;strokeColor=none;fillColor=none;" parent="NPpUsrkIHnFNNXtcyEgX-66" vertex="1">
          <mxGeometry x="340" y="288" width="46" height="26" as="geometry" />
        </mxCell>
        <mxCell id="NPpUsrkIHnFNNXtcyEgX-58" value="1 ... *" style="text;html=1;align=center;verticalAlign=middle;resizable=0;points=[];autosize=1;strokeColor=none;fillColor=none;" parent="NPpUsrkIHnFNNXtcyEgX-66" vertex="1">
          <mxGeometry x="340" y="149" width="46" height="26" as="geometry" />
        </mxCell>
        <mxCell id="NPpUsrkIHnFNNXtcyEgX-59" value="*" style="text;html=1;align=center;verticalAlign=middle;resizable=0;points=[];autosize=1;strokeColor=none;fillColor=none;" parent="NPpUsrkIHnFNNXtcyEgX-66" vertex="1">
          <mxGeometry x="160" y="56" width="23" height="26" as="geometry" />
        </mxCell>
        <mxCell id="NPpUsrkIHnFNNXtcyEgX-60" value="1" style="text;html=1;align=center;verticalAlign=middle;resizable=0;points=[];autosize=1;strokeColor=none;fillColor=none;" parent="NPpUsrkIHnFNNXtcyEgX-66" vertex="1">
          <mxGeometry x="472" y="56" width="25" height="26" as="geometry" />
        </mxCell>
        <mxCell id="NPpUsrkIHnFNNXtcyEgX-63" style="edgeStyle=orthogonalEdgeStyle;rounded=0;orthogonalLoop=1;jettySize=auto;html=1;exitX=1;exitY=0.5;exitDx=0;exitDy=0;entryX=0;entryY=0.5;entryDx=0;entryDy=0;startArrow=diamondThin;startFill=0;" parent="NPpUsrkIHnFNNXtcyEgX-66" source="NPpUsrkIHnFNNXtcyEgX-17" target="NPpUsrkIHnFNNXtcyEgX-21" edge="1">
          <mxGeometry relative="1" as="geometry" />
        </mxCell>
        <mxCell id="NPpUsrkIHnFNNXtcyEgX-64" value="*" style="text;html=1;align=center;verticalAlign=middle;resizable=0;points=[];autosize=1;strokeColor=none;fillColor=none;" parent="NPpUsrkIHnFNNXtcyEgX-66" vertex="1">
          <mxGeometry x="161" y="337" width="23" height="26" as="geometry" />
        </mxCell>
        <mxCell id="NPpUsrkIHnFNNXtcyEgX-65" value="0 ... *" style="text;html=1;align=center;verticalAlign=middle;resizable=0;points=[];autosize=1;strokeColor=none;fillColor=none;" parent="NPpUsrkIHnFNNXtcyEgX-66" vertex="1">
          <mxGeometry x="222" y="337" width="46" height="26" as="geometry" />
        </mxCell>
        <mxCell id="e5NKQKGTSLIGtZle6qO9-22" value="*" style="text;html=1;align=center;verticalAlign=middle;resizable=0;points=[];autosize=1;strokeColor=none;fillColor=none;" parent="NPpUsrkIHnFNNXtcyEgX-66" vertex="1">
          <mxGeometry x="408" y="61" width="23" height="26" as="geometry" />
        </mxCell>
        <mxCell id="-qn0VNu3mBSavHZw8yQI-41" value="VHS_INFO" style="swimlane;whiteSpace=wrap;html=1;" vertex="1" parent="-qn0VNu3mBSavHZw8yQI-42">
          <mxGeometry x="53" y="70" width="672" height="583" as="geometry" />
        </mxCell>
        <mxCell id="e5NKQKGTSLIGtZle6qO9-1" value="Appointments" style="swimlane;fontStyle=0;childLayout=stackLayout;horizontal=1;startSize=26;fillColor=none;horizontalStack=0;resizeParent=1;resizeParentMax=0;resizeLast=0;collapsible=1;marginBottom=0;whiteSpace=wrap;html=1;" parent="-qn0VNu3mBSavHZw8yQI-41" vertex="1">
          <mxGeometry x="370" y="44" width="140" height="234" as="geometry" />
        </mxCell>
        <mxCell id="e5NKQKGTSLIGtZle6qO9-2" value="id" style="text;strokeColor=none;fillColor=none;align=left;verticalAlign=top;spacingLeft=4;spacingRight=4;overflow=hidden;rotatable=0;points=[[0,0.5],[1,0.5]];portConstraint=eastwest;whiteSpace=wrap;html=1;" parent="e5NKQKGTSLIGtZle6qO9-1" vertex="1">
          <mxGeometry y="26" width="140" height="26" as="geometry" />
        </mxCell>
        <mxCell id="e5NKQKGTSLIGtZle6qO9-5" value="customer_id" style="text;strokeColor=none;fillColor=none;align=left;verticalAlign=top;spacingLeft=4;spacingRight=4;overflow=hidden;rotatable=0;points=[[0,0.5],[1,0.5]];portConstraint=eastwest;whiteSpace=wrap;html=1;" parent="e5NKQKGTSLIGtZle6qO9-1" vertex="1">
          <mxGeometry y="52" width="140" height="26" as="geometry" />
        </mxCell>
        <mxCell id="e5NKQKGTSLIGtZle6qO9-8" value="service_id" style="text;strokeColor=none;fillColor=none;align=left;verticalAlign=top;spacingLeft=4;spacingRight=4;overflow=hidden;rotatable=0;points=[[0,0.5],[1,0.5]];portConstraint=eastwest;whiteSpace=wrap;html=1;" parent="e5NKQKGTSLIGtZle6qO9-1" vertex="1">
          <mxGeometry y="78" width="140" height="26" as="geometry" />
        </mxCell>
        <mxCell id="e5NKQKGTSLIGtZle6qO9-6" value="booking_datetime" style="text;strokeColor=none;fillColor=none;align=left;verticalAlign=top;spacingLeft=4;spacingRight=4;overflow=hidden;rotatable=0;points=[[0,0.5],[1,0.5]];portConstraint=eastwest;whiteSpace=wrap;html=1;" parent="e5NKQKGTSLIGtZle6qO9-1" vertex="1">
          <mxGeometry y="104" width="140" height="26" as="geometry" />
        </mxCell>
        <mxCell id="e5NKQKGTSLIGtZle6qO9-7" value="status" style="text;strokeColor=none;fillColor=none;align=left;verticalAlign=top;spacingLeft=4;spacingRight=4;overflow=hidden;rotatable=0;points=[[0,0.5],[1,0.5]];portConstraint=eastwest;whiteSpace=wrap;html=1;" parent="e5NKQKGTSLIGtZle6qO9-1" vertex="1">
          <mxGeometry y="130" width="140" height="26" as="geometry" />
        </mxCell>
        <mxCell id="e5NKQKGTSLIGtZle6qO9-9" value="remarks" style="text;strokeColor=none;fillColor=none;align=left;verticalAlign=top;spacingLeft=4;spacingRight=4;overflow=hidden;rotatable=0;points=[[0,0.5],[1,0.5]];portConstraint=eastwest;whiteSpace=wrap;html=1;" parent="e5NKQKGTSLIGtZle6qO9-1" vertex="1">
          <mxGeometry y="156" width="140" height="26" as="geometry" />
        </mxCell>
        <mxCell id="e5NKQKGTSLIGtZle6qO9-15" value="created_at" style="text;strokeColor=none;fillColor=none;align=left;verticalAlign=top;spacingLeft=4;spacingRight=4;overflow=hidden;rotatable=0;points=[[0,0.5],[1,0.5]];portConstraint=eastwest;whiteSpace=wrap;html=1;" parent="e5NKQKGTSLIGtZle6qO9-1" vertex="1">
          <mxGeometry y="182" width="140" height="26" as="geometry" />
        </mxCell>
        <mxCell id="e5NKQKGTSLIGtZle6qO9-16" value="last_updated" style="text;strokeColor=none;fillColor=none;align=left;verticalAlign=top;spacingLeft=4;spacingRight=4;overflow=hidden;rotatable=0;points=[[0,0.5],[1,0.5]];portConstraint=eastwest;whiteSpace=wrap;html=1;" parent="e5NKQKGTSLIGtZle6qO9-1" vertex="1">
          <mxGeometry y="208" width="140" height="26" as="geometry" />
        </mxCell>
        <mxCell id="e5NKQKGTSLIGtZle6qO9-10" value="Services" style="swimlane;fontStyle=0;childLayout=stackLayout;horizontal=1;startSize=26;fillColor=none;horizontalStack=0;resizeParent=1;resizeParentMax=0;resizeLast=0;collapsible=1;marginBottom=0;whiteSpace=wrap;html=1;" parent="-qn0VNu3mBSavHZw8yQI-41" vertex="1">
          <mxGeometry x="100" y="44" width="140" height="182" as="geometry" />
        </mxCell>
        <mxCell id="e5NKQKGTSLIGtZle6qO9-11" value="id" style="text;strokeColor=none;fillColor=none;align=left;verticalAlign=top;spacingLeft=4;spacingRight=4;overflow=hidden;rotatable=0;points=[[0,0.5],[1,0.5]];portConstraint=eastwest;whiteSpace=wrap;html=1;" parent="e5NKQKGTSLIGtZle6qO9-10" vertex="1">
          <mxGeometry y="26" width="140" height="26" as="geometry" />
        </mxCell>
        <mxCell id="e5NKQKGTSLIGtZle6qO9-12" value="salon_id" style="text;strokeColor=none;fillColor=none;align=left;verticalAlign=top;spacingLeft=4;spacingRight=4;overflow=hidden;rotatable=0;points=[[0,0.5],[1,0.5]];portConstraint=eastwest;whiteSpace=wrap;html=1;" parent="e5NKQKGTSLIGtZle6qO9-10" vertex="1">
          <mxGeometry y="52" width="140" height="26" as="geometry" />
        </mxCell>
        <mxCell id="e5NKQKGTSLIGtZle6qO9-13" value="service_name" style="text;strokeColor=none;fillColor=none;align=left;verticalAlign=top;spacingLeft=4;spacingRight=4;overflow=hidden;rotatable=0;points=[[0,0.5],[1,0.5]];portConstraint=eastwest;whiteSpace=wrap;html=1;" parent="e5NKQKGTSLIGtZle6qO9-10" vertex="1">
          <mxGeometry y="78" width="140" height="26" as="geometry" />
        </mxCell>
        <mxCell id="e5NKQKGTSLIGtZle6qO9-19" value="avaliability" style="text;strokeColor=none;fillColor=none;align=left;verticalAlign=top;spacingLeft=4;spacingRight=4;overflow=hidden;rotatable=0;points=[[0,0.5],[1,0.5]];portConstraint=eastwest;whiteSpace=wrap;html=1;" parent="e5NKQKGTSLIGtZle6qO9-10" vertex="1">
          <mxGeometry y="104" width="140" height="26" as="geometry" />
        </mxCell>
        <mxCell id="e5NKQKGTSLIGtZle6qO9-17" value="duration" style="text;strokeColor=none;fillColor=none;align=left;verticalAlign=top;spacingLeft=4;spacingRight=4;overflow=hidden;rotatable=0;points=[[0,0.5],[1,0.5]];portConstraint=eastwest;whiteSpace=wrap;html=1;" parent="e5NKQKGTSLIGtZle6qO9-10" vertex="1">
          <mxGeometry y="130" width="140" height="26" as="geometry" />
        </mxCell>
        <mxCell id="e5NKQKGTSLIGtZle6qO9-14" value="desc" style="text;strokeColor=none;fillColor=none;align=left;verticalAlign=top;spacingLeft=4;spacingRight=4;overflow=hidden;rotatable=0;points=[[0,0.5],[1,0.5]];portConstraint=eastwest;whiteSpace=wrap;html=1;" parent="e5NKQKGTSLIGtZle6qO9-10" vertex="1">
          <mxGeometry y="156" width="140" height="26" as="geometry" />
        </mxCell>
        <mxCell id="e5NKQKGTSLIGtZle6qO9-18" style="edgeStyle=orthogonalEdgeStyle;rounded=0;orthogonalLoop=1;jettySize=auto;html=1;exitX=1;exitY=0.5;exitDx=0;exitDy=0;entryX=0;entryY=0.5;entryDx=0;entryDy=0;" parent="-qn0VNu3mBSavHZw8yQI-41" source="e5NKQKGTSLIGtZle6qO9-11" target="e5NKQKGTSLIGtZle6qO9-2" edge="1">
          <mxGeometry relative="1" as="geometry" />
        </mxCell>
        <mxCell id="e5NKQKGTSLIGtZle6qO9-20" value="0 ... *" style="text;html=1;align=center;verticalAlign=middle;resizable=0;points=[];autosize=1;strokeColor=none;fillColor=none;" parent="-qn0VNu3mBSavHZw8yQI-41" vertex="1">
          <mxGeometry x="324" y="54" width="46" height="26" as="geometry" />
        </mxCell>
        <mxCell id="e5NKQKGTSLIGtZle6qO9-21" value="1" style="text;html=1;align=center;verticalAlign=middle;resizable=0;points=[];autosize=1;strokeColor=none;fillColor=none;" parent="-qn0VNu3mBSavHZw8yQI-41" vertex="1">
          <mxGeometry x="240" y="54" width="25" height="26" as="geometry" />
        </mxCell>
        <mxCell id="e5NKQKGTSLIGtZle6qO9-23" value="Reviews" style="swimlane;fontStyle=0;childLayout=stackLayout;horizontal=1;startSize=26;fillColor=none;horizontalStack=0;resizeParent=1;resizeParentMax=0;resizeLast=0;collapsible=1;marginBottom=0;whiteSpace=wrap;html=1;" parent="-qn0VNu3mBSavHZw8yQI-41" vertex="1">
          <mxGeometry x="100" y="367" width="140" height="156" as="geometry" />
        </mxCell>
        <mxCell id="e5NKQKGTSLIGtZle6qO9-24" value="id" style="text;strokeColor=none;fillColor=none;align=left;verticalAlign=top;spacingLeft=4;spacingRight=4;overflow=hidden;rotatable=0;points=[[0,0.5],[1,0.5]];portConstraint=eastwest;whiteSpace=wrap;html=1;" parent="e5NKQKGTSLIGtZle6qO9-23" vertex="1">
          <mxGeometry y="26" width="140" height="26" as="geometry" />
        </mxCell>
        <mxCell id="e5NKQKGTSLIGtZle6qO9-25" value="service_id" style="text;strokeColor=none;fillColor=none;align=left;verticalAlign=top;spacingLeft=4;spacingRight=4;overflow=hidden;rotatable=0;points=[[0,0.5],[1,0.5]];portConstraint=eastwest;whiteSpace=wrap;html=1;" parent="e5NKQKGTSLIGtZle6qO9-23" vertex="1">
          <mxGeometry y="52" width="140" height="26" as="geometry" />
        </mxCell>
        <mxCell id="e5NKQKGTSLIGtZle6qO9-27" value="rating" style="text;strokeColor=none;fillColor=none;align=left;verticalAlign=top;spacingLeft=4;spacingRight=4;overflow=hidden;rotatable=0;points=[[0,0.5],[1,0.5]];portConstraint=eastwest;whiteSpace=wrap;html=1;" parent="e5NKQKGTSLIGtZle6qO9-23" vertex="1">
          <mxGeometry y="78" width="140" height="26" as="geometry" />
        </mxCell>
        <mxCell id="e5NKQKGTSLIGtZle6qO9-29" value="comment" style="text;strokeColor=none;fillColor=none;align=left;verticalAlign=top;spacingLeft=4;spacingRight=4;overflow=hidden;rotatable=0;points=[[0,0.5],[1,0.5]];portConstraint=eastwest;whiteSpace=wrap;html=1;" parent="e5NKQKGTSLIGtZle6qO9-23" vertex="1">
          <mxGeometry y="104" width="140" height="26" as="geometry" />
        </mxCell>
        <mxCell id="e5NKQKGTSLIGtZle6qO9-30" value="created_at" style="text;strokeColor=none;fillColor=none;align=left;verticalAlign=top;spacingLeft=4;spacingRight=4;overflow=hidden;rotatable=0;points=[[0,0.5],[1,0.5]];portConstraint=eastwest;whiteSpace=wrap;html=1;" parent="e5NKQKGTSLIGtZle6qO9-23" vertex="1">
          <mxGeometry y="130" width="140" height="26" as="geometry" />
        </mxCell>
        <mxCell id="e5NKQKGTSLIGtZle6qO9-32" style="edgeStyle=orthogonalEdgeStyle;rounded=0;orthogonalLoop=1;jettySize=auto;html=1;entryX=0.5;entryY=0;entryDx=0;entryDy=0;startArrow=classic;startFill=1;endArrow=none;endFill=0;" parent="-qn0VNu3mBSavHZw8yQI-41" source="e5NKQKGTSLIGtZle6qO9-10" target="e5NKQKGTSLIGtZle6qO9-23" edge="1">
          <mxGeometry relative="1" as="geometry" />
        </mxCell>
        <mxCell id="e5NKQKGTSLIGtZle6qO9-33" value="1" style="text;html=1;align=center;verticalAlign=middle;resizable=0;points=[];autosize=1;strokeColor=none;fillColor=none;" parent="-qn0VNu3mBSavHZw8yQI-41" vertex="1">
          <mxGeometry x="178" y="227" width="25" height="26" as="geometry" />
        </mxCell>
        <mxCell id="e5NKQKGTSLIGtZle6qO9-35" value="1" style="text;html=1;align=center;verticalAlign=middle;resizable=0;points=[];autosize=1;strokeColor=none;fillColor=none;" parent="-qn0VNu3mBSavHZw8yQI-41" vertex="1">
          <mxGeometry x="178" y="341" width="25" height="26" as="geometry" />
        </mxCell>
        <mxCell id="-qn0VNu3mBSavHZw8yQI-44" value="NOSQL Databases" style="swimlane;" vertex="1" parent="1">
          <mxGeometry x="-2146" y="686" width="1510" height="633" as="geometry" />
        </mxCell>
      </root>
    </mxGraphModel>
  </diagram>
</mxfile>
